# Blender v2.83.4 OBJ File: 'untitled.blend'
# www.blender.org
mtllib untitled.mtl
o Cube
v -1.419752 0.369891 -0.719980
v 1.111444 -0.927001 -0.719980
v 0.309288 -0.927001 -0.719980
v 0.309288 -0.427001 -0.816823
v 1.111444 -0.927001 -0.816823
v 0.309288 -0.927001 -0.816823
v 1.485614 -0.427001 -0.719980
v 1.485618 -0.927001 -0.719980
v 1.485614 -0.427001 -0.816823
v 1.485618 -0.927001 -0.816823
v 1.485616 -0.677001 -0.719980
v 1.485614 -0.677001 -0.816823
v 0.039840 -0.677001 -0.719978
v 0.039840 -0.677001 -0.816823
v -1.419752 -0.427001 -0.719980
v 0.309288 -0.427001 -0.719980
v 1.111440 0.369891 -0.768400
v 1.111440 -0.427001 -0.768400
v 1.717639 -0.427001 -0.719980
v 1.717639 -0.427001 -0.816823
v 1.717640 -0.677001 -0.719980
v 1.717639 -0.677001 -0.816823
v 1.485614 -0.427001 -0.768400
v 1.111445 -0.427001 -0.816823
v 1.111442 0.369891 -0.241709
v 1.111444 -0.427001 -0.241710
v 0.569068 1.074221 -0.241710
v 1.350958 -0.427001 -0.719980
v 1.350960 -0.427001 -0.241710
v 1.350962 -0.427001 -0.768400
v 1.350958 0.369891 -0.768400
v 1.350954 0.369891 -0.719980
v 1.350952 0.369891 -0.241710
v 1.301209 0.516022 -0.768400
v 0.758833 1.220352 -0.768400
v 0.758833 1.220352 -0.719980
v 1.301211 0.516022 -0.719980
v 1.301207 0.516022 -0.241710
v 0.758833 1.220352 -0.241710
v 0.190908 0.369891 -0.719980
v 0.190908 -0.427001 -0.719980
v 0.190908 1.074221 -0.719980
v 0.309288 -0.927001 -0.768400
v 0.039840 -0.677001 -0.768400
v 0.190908 0.369891 -0.768400
v 0.309287 0.369891 -0.768399
v 0.190908 -0.427001 -0.768400
v 0.309288 -0.427001 -0.768400
v 0.190908 1.074221 -0.768400
v 0.309287 1.074221 -0.768399
v 0.309287 1.220350 -0.768399
v 0.569067 1.220348 -0.768400
v 0.190907 1.220350 -0.719980
v 0.309287 1.220350 -0.719980
v -0.614423 1.074221 -0.241710
v 0.569067 1.220348 -0.719980
v 0.190907 1.220350 -0.768400
v 0.875739 -1.333358 -0.719980
v 1.111444 -1.128357 -0.719980
v -0.973116 -1.333358 -0.719980
v -1.419752 -0.927001 -0.719980
v -0.614422 1.074221 -0.719980
v 0.190907 1.074221 -0.241710
v 0.190907 1.220350 -0.241710
v -0.614422 0.369891 -0.719980
v 0.569068 1.074220 -0.768400
v 0.569068 0.369891 -0.768400
v 0.875739 -0.927001 -0.719980
v -0.973116 -0.927001 -0.719980
v 0.039840 -0.927001 -0.719980
v 0.039840 -0.427001 -0.719980
v 1.485614 -0.427001 -0.241710
v 1.350959 -0.427001 -0.528880
v 1.350953 0.369891 -0.528880
v -1.419752 0.369891 0.719980
v 1.111444 -0.927001 0.719980
v 0.309288 -0.927001 0.719980
v 0.309288 -0.427001 0.816823
v 1.111444 -0.927001 0.816823
v 0.309288 -0.927001 0.816823
v 1.485614 -0.427001 0.719980
v 1.485618 -0.927001 0.719980
v 1.485614 -0.427001 0.816823
v 1.485618 -0.927001 0.816823
v 1.485616 -0.677001 0.719980
v 1.485614 -0.677001 0.816823
v 0.039840 -0.677001 0.719978
v 0.039840 -0.677001 0.816823
v -1.419752 -0.427001 0.719980
v 0.309288 -0.427001 0.719980
v 1.111440 0.369891 0.768400
v 1.111440 -0.427001 0.768400
v 1.717639 -0.427001 0.719980
v 1.717639 -0.427001 0.816823
v 1.717640 -0.677001 0.719980
v 1.717639 -0.677001 0.816823
v 1.485614 -0.427001 0.768400
v 1.111445 -0.427001 0.816823
v 1.111442 0.369891 0.241709
v 1.111444 -0.427001 0.241710
v 0.569068 1.074221 0.241710
v 1.350958 -0.427001 0.719980
v 1.350960 -0.427001 0.241710
v 1.350962 -0.427001 0.768400
v 1.350958 0.369891 0.768400
v 1.350954 0.369891 0.719980
v 1.350952 0.369891 0.241710
v 1.301209 0.516022 0.768400
v 0.758833 1.220352 0.768400
v 0.758833 1.220352 0.719980
v 1.301211 0.516022 0.719980
v 1.301207 0.516022 0.241710
v 0.758833 1.220352 0.241710
v 0.190908 0.369891 0.719980
v 0.190908 -0.427001 0.719980
v 0.190908 1.074221 0.719980
v 0.309288 -0.927001 0.768400
v 0.039840 -0.677001 0.768400
v 0.190908 0.369891 0.768400
v 0.309287 0.369891 0.768399
v 0.190908 -0.427001 0.768400
v 0.309288 -0.427001 0.768400
v 0.190908 1.074221 0.768400
v 0.309287 1.074221 0.768399
v 0.309287 1.220350 0.768399
v 0.569067 1.220348 0.768400
v 0.190907 1.220350 0.719980
v 0.309287 1.220350 0.719980
v -0.614423 1.074221 0.241710
v 0.569067 1.220348 0.719980
v 0.190907 1.220350 0.768400
v 0.875739 -1.333358 0.719980
v 1.111444 -1.128357 0.719980
v -0.973116 -1.333358 0.719980
v -1.419752 -0.927001 0.719980
v -0.614422 1.074221 0.719980
v 0.190907 1.074221 0.241710
v 0.190907 1.220350 0.241710
v -0.614422 0.369891 0.719980
v 0.569068 1.074220 0.768400
v 0.569068 0.369891 0.768400
v 0.875739 -0.927001 0.719980
v -0.973116 -0.927001 0.719980
v 0.039840 -0.927001 0.719980
v 0.039840 -0.427001 0.719980
v 1.485614 -0.427001 0.241710
v 0.569067 1.074221 0.000000
v 1.111442 0.369891 0.000000
v 1.111443 -0.427001 0.000000
v 1.350956 -0.427001 0.000000
v 0.190907 1.074220 0.000000
v 1.111444 -0.927001 0.000000
v 1.485618 -0.927001 0.000000
v 1.485616 -0.677001 0.000000
v 1.717639 -0.427001 0.000000
v -1.419752 0.369891 0.000000
v -1.419752 -0.427001 0.000000
v 1.717640 -0.677001 0.000000
v 1.485614 -0.427001 0.000000
v 0.875739 -1.333358 0.000000
v 1.111444 -1.128357 0.000000
v -1.419752 -0.927001 0.000000
v -0.973116 -1.333358 0.000000
v -0.614422 1.074220 0.000000
v 1.350959 -0.427001 0.528880
v 1.350953 0.369891 0.528880
vt 0.995208 0.151965
vt 0.995208 0.284259
vt 0.875683 0.284259
vt 0.875683 0.151965
vt 0.995208 0.068959
vt 0.875683 0.068959
vt 0.202411 0.562993
vt 0.293761 0.562993
vt 0.164400 0.562993
vt 0.164400 0.530521
vt 0.202411 0.497462
vt 0.549022 0.080682
vt 0.415855 0.080682
vt 0.415855 0.072643
vt 0.415855 0.064604
vt 0.549022 0.064604
vt 0.175216 0.592006
vt 0.175216 0.651487
vt 0.079792 0.651487
vt 0.079792 0.592006
vt 0.778542 0.023088
vt 0.808629 0.023088
vt 0.808631 0.090776
vt 0.778542 0.090776
vt 0.464563 0.424898
vt 0.624364 0.424898
vt 0.624364 0.434544
vt 0.464563 0.434544
vt 0.611139 0.080682
vt 0.611139 0.064604
vt 0.649658 0.064604
vt 0.649658 0.080682
vt 0.549022 0.200207
vt 0.611140 0.080682
vt 0.611140 0.200207
vt 0.965421 0.701226
vt 0.965421 0.641461
vt 0.988572 0.641461
vt 0.988572 0.701226
vt 0.611140 0.064604
vt 0.035280 0.651487
vt 0.035280 0.621747
vt 0.035280 0.592006
vt 0.808629 0.158464
vt 0.778542 0.158464
vt 0.244693 0.711802
vt 0.244693 0.827652
vt 0.206927 0.827652
vt 0.128078 0.827652
vt 0.128078 0.711802
vt 0.244693 0.930046
vt 0.206927 0.930046
vt 0.103275 0.673822
vt 0.103275 0.789672
vt 0.068455 0.789672
vt 0.068454 0.673822
vt 0.988572 0.701226
vt 0.988572 0.760990
vt 0.965421 0.760990
vt 0.965421 0.701226
vt 0.793305 0.760990
vt 0.793305 0.701226
vt 0.611139 0.200207
vt 0.649658 0.200207
vt 0.698904 0.434544
vt 0.698904 0.424898
vt 0.698904 0.415252
vt 0.745126 0.415252
vt 0.745126 0.434544
vt 0.007679 0.651487
vt 0.007679 0.621747
vt 0.672078 0.424898
vt 0.207270 0.621747
vt 0.745126 0.271821
vt 0.698904 0.319973
vt 0.698904 0.271821
vt 0.442724 0.885722
vt 0.442724 0.772138
vt 0.572596 0.772138
vt 0.045361 0.888967
vt 0.045361 0.789797
vt 0.015554 0.789797
vt 0.015555 0.888967
vt 0.979211 0.994898
vt 0.979211 0.804395
vt 0.990786 0.804395
vt 0.990786 0.994898
vt 0.456920 0.371364
vt 0.456919 0.276086
vt 0.466829 0.276086
vt 0.466829 0.323725
vt 0.466830 0.371364
vt 0.348134 0.167974
vt 0.348134 0.216126
vt 0.240085 0.216126
vt 0.240085 0.167974
vt 0.672078 0.271821
vt 0.672079 0.319973
vt 0.624364 0.319973
vt 0.624363 0.271821
vt 0.672078 0.415252
vt 0.893527 0.804395
vt 0.893527 0.994898
vt 0.836361 0.994898
vt 0.836360 0.804395
vt 0.021746 0.907153
vt 0.093258 0.827652
vt 0.100490 0.848896
vt 0.456920 0.381010
vt 0.348871 0.381010
vt 0.348871 0.371364
vt 0.348871 0.276086
vt 0.112858 0.976618
vt 0.089242 0.994804
vt 0.206927 0.951289
vt 0.179339 0.951290
vt 0.311067 0.371364
vt 0.311067 0.381010
vt 0.466830 0.381010
vt 0.572596 0.643626
vt 0.312851 0.772138
vt 0.312851 0.643626
vt 0.812111 0.196887
vt 0.812111 0.329181
vt 0.804073 0.329181
vt 0.804073 0.196887
vt 0.748452 0.023088
vt 0.748452 0.090776
vt 0.748452 0.158464
vt 0.261903 0.711802
vt 0.261903 0.827652
vt 0.261903 0.930046
vt 0.812111 0.446108
vt 0.804073 0.446108
vt -0.877170 0.588992
vt -0.847169 0.588992
vt -0.847169 0.588992
vt -0.877170 0.588992
vt 0.259315 0.371364
vt 0.259315 0.381010
vt 0.235732 0.371364
vt 0.235732 0.381010
vt 0.812111 0.470367
vt 0.804073 0.470367
vt 0.261903 0.951290
vt 0.244693 0.951290
vt 0.891509 0.446108
vt 0.891509 0.470367
vt 0.004317 0.216126
vt 0.164750 0.216126
vt 0.164751 0.311405
vt 0.004318 0.311405
vt 0.995208 0.401186
vt 0.875683 0.401186
vt 0.159919 0.994804
vt 0.159919 0.976618
vt 0.235732 0.276086
vt 0.312851 0.885722
vt 0.500569 0.562993
vt 0.500569 0.497462
vt 0.572596 0.562993
vt 0.337213 0.603310
vt 0.337213 0.562993
vt 0.293761 0.643626
vt 0.337213 0.643626
vt 0.164750 0.167974
vt 0.004318 0.167974
vt 0.791757 0.994898
vt 0.733975 0.994898
vt 0.733975 0.804395
vt 0.791758 0.804395
vt 0.875683 0.001499
vt 0.995208 0.001499
vt 0.348642 0.017736
vt 0.348642 0.137261
vt 0.309512 0.137261
vt 0.309512 0.017736
vt 0.002580 0.017736
vt 0.002580 0.137261
vt 0.793305 0.701226
vt 0.793305 0.641461
vt 0.970072 0.543720
vt 0.970072 0.591855
vt 0.797956 0.591855
vt 0.797956 0.543720
vt 0.672078 0.367613
vt 0.922044 0.994898
vt 0.922044 0.804395
vt 0.875683 0.151965
vt 0.875683 0.284259
vt 0.875683 0.068959
vt 0.202411 0.562993
vt 0.202411 0.497462
vt 0.164400 0.530521
vt 0.164400 0.562993
vt 0.293761 0.562993
vt 0.549022 0.080682
vt 0.549022 0.064604
vt 0.415855 0.064604
vt 0.415855 0.072643
vt 0.415855 0.080682
vt 0.175216 0.592006
vt 0.079792 0.592006
vt 0.079792 0.651487
vt 0.175216 0.651487
vt 0.778542 0.023088
vt 0.778542 0.090776
vt 0.808631 0.090776
vt 0.808629 0.023088
vt 0.464563 0.424898
vt 0.464563 0.434544
vt 0.624364 0.434544
vt 0.624364 0.424898
vt 0.611139 0.080682
vt 0.649658 0.080682
vt 0.649658 0.064604
vt 0.611139 0.064604
vt 0.611140 0.080682
vt 0.965421 0.701226
vt 0.988572 0.701226
vt 0.988572 0.641461
vt 0.965421 0.641461
vt 0.611140 0.064604
vt 0.035280 0.592006
vt 0.035280 0.621747
vt 0.035280 0.651487
vt 0.778542 0.158464
vt 0.808629 0.158464
vt 0.244693 0.711802
vt 0.128078 0.711802
vt 0.128078 0.827652
vt 0.206927 0.827652
vt 0.244693 0.827652
vt 0.206927 0.930046
vt 0.244693 0.930046
vt 0.103275 0.673822
vt 0.068454 0.673822
vt 0.068455 0.789672
vt 0.103275 0.789672
vt 0.988572 0.701226
vt 0.965421 0.701226
vt 0.965421 0.760990
vt 0.988572 0.760990
vt 0.698904 0.434544
vt 0.745126 0.434544
vt 0.745126 0.415252
vt 0.698904 0.415252
vt 0.698904 0.424898
vt 0.007679 0.621747
vt 0.007679 0.651487
vt 0.672078 0.424898
vt 0.207270 0.621747
vt 0.698904 0.319973
vt 0.442724 0.885722
vt 0.572596 0.772138
vt 0.442724 0.772138
vt 0.045361 0.888967
vt 0.015555 0.888967
vt 0.015554 0.789797
vt 0.045361 0.789797
vt 0.979211 0.994898
vt 0.990786 0.994898
vt 0.990786 0.804395
vt 0.979211 0.804395
vt 0.456920 0.371364
vt 0.466830 0.371364
vt 0.466829 0.323725
vt 0.466829 0.276086
vt 0.456919 0.276086
vt 0.240085 0.216126
vt 0.348134 0.216126
vt 0.624364 0.319973
vt 0.672079 0.319973
vt 0.672078 0.415252
vt 0.893527 0.804395
vt 0.836360 0.804395
vt 0.836361 0.994898
vt 0.893527 0.994898
vt 0.021746 0.907153
vt 0.093258 0.827652
vt 0.100490 0.848896
vt 0.348871 0.371364
vt 0.348871 0.381010
vt 0.456920 0.381010
vt 0.348871 0.276086
vt 0.112858 0.976618
vt 0.089242 0.994804
vt 0.179339 0.951290
vt 0.206927 0.951289
vt 0.311067 0.371364
vt 0.311067 0.381010
vt 0.466830 0.381010
vt 0.572596 0.643626
vt 0.312851 0.643626
vt 0.312851 0.772138
vt 0.812111 0.196887
vt 0.804073 0.196887
vt 0.804073 0.329181
vt 0.812111 0.329181
vt 0.748452 0.023088
vt 0.748452 0.090776
vt 0.748452 0.158464
vt 0.261903 0.711802
vt 0.261903 0.827652
vt 0.261903 0.930046
vt 0.804073 0.446108
vt 0.812111 0.446108
vt -0.877170 0.588992
vt -0.877170 0.588992
vt -0.847169 0.588992
vt -0.847169 0.588992
vt 0.259315 0.371364
vt 0.259315 0.381010
vt 0.235732 0.371364
vt 0.235732 0.381010
vt 0.804073 0.470367
vt 0.812111 0.470367
vt 0.244693 0.951290
vt 0.261903 0.951290
vt 0.891509 0.446108
vt 0.891509 0.470367
vt 0.004317 0.216126
vt 0.004318 0.311405
vt 0.164751 0.311405
vt 0.164750 0.216126
vt 0.875683 0.401186
vt 0.159919 0.976618
vt 0.159919 0.994804
vt 0.235732 0.276086
vt 0.312851 0.885722
vt 0.500569 0.562993
vt 0.500569 0.497462
vt 0.572596 0.562993
vt 0.337213 0.603310
vt 0.337213 0.562993
vt 0.293761 0.643626
vt 0.337213 0.643626
vt 0.791757 0.994898
vt 0.791758 0.804395
vt 0.875683 0.001499
vt 0.348642 0.017736
vt 0.309512 0.017736
vt 0.002580 0.017736
vt 0.970072 0.543720
vt 0.970072 0.591855
vt 0.672078 0.367613
vt 0.922044 0.804395
vt 0.922044 0.994898
vn -1.0000 0.0000 0.0000
vn 0.0000 0.0000 -1.0000
vn 0.0000 -1.0000 0.0000
vn -0.6802 -0.7331 -0.0000
vn 0.0000 1.0000 -0.0000
vn 1.0000 0.0000 -0.0000
vn -0.6802 0.7331 0.0000
vn 0.0000 -0.0000 1.0000
vn 1.0000 0.0000 0.0001
vn 0.9467 0.3222 0.0000
vn 0.7923 0.6101 0.0000
vn 0.9467 0.3223 0.0000
vn -0.6583 0.7527 0.0000
vn -0.6730 -0.7397 0.0000
vn 0.6563 -0.7545 0.0000
vn 1.0000 0.0000 -0.0001
usemtl Material
s off
f 157/1/1 156/2/1 1/3/1 15/4/1
f 162/5/1 157/1/1 15/4/1 61/6/1
f 68/7/2 3/8/2 2/9/2 59/10/2 58/11/2
f 2/12/3 3/13/3 43/14/3 6/15/3 5/16/3
f 6/17/2 4/18/2 24/19/2 5/20/2
f 43/21/4 3/22/4 13/23/4 44/24/4
f 48/25/5 18/26/5 24/27/5 4/28/5
f 11/29/3 12/30/3 22/31/3 21/32/3
f 152/33/3 2/12/3 8/34/3 153/35/3
f 11/36/6 8/37/6 10/38/6 12/39/6
f 2/12/3 5/16/3 10/40/3 8/34/3
f 5/20/2 24/19/2 9/41/2 12/42/2 10/43/2
f 13/23/7 16/44/7 48/45/7 44/24/7
f 48/46/2 46/47/2 67/48/2 17/49/2 18/50/2
f 67/48/2 46/47/2 50/51/2 66/52/2
f 18/53/2 17/54/2 31/55/2 30/56/2
f 22/57/6 20/58/6 19/59/6 21/60/6
f 155/61/6 158/62/6 21/60/6 19/59/6
f 154/63/3 11/29/3 21/32/3 158/64/3
f 9/65/5 23/66/5 7/67/5 19/68/5 20/69/5
f 12/42/2 9/41/2 20/70/2 22/71/2
f 9/65/5 24/27/5 18/26/5 30/72/5 23/66/5
f 4/18/2 6/17/2 14/73/2
f 155/74/5 19/68/5 7/67/5 72/75/5 159/76/5
f 62/77/2 65/78/2 1/79/2
f 25/80/8 26/81/8 29/82/8 33/83/8
f 32/84/9 28/85/9 30/86/9 31/87/9
f 37/88/10 38/89/10 33/90/10 74/91/10 32/92/10
f 148/93/11 25/94/11 27/95/11 147/96/11
f 150/97/5 29/98/5 26/99/5 149/100/5
f 23/66/5 30/72/5 28/101/5 7/67/5
f 73/102/6 74/103/6 33/104/6 29/105/6
f 25/80/8 33/83/8 38/106/8
f 31/107/2 17/49/2 34/108/2
f 37/88/11 34/109/11 35/110/11 36/111/11
f 38/89/11 37/88/11 36/111/11 39/112/11
f 27/113/8 25/80/8 38/106/8 39/114/8
f 66/52/2 52/115/2 35/116/2
f 56/117/5 36/111/5 35/110/5 52/118/5
f 17/49/2 66/52/2 35/116/2 34/108/2
f 37/88/12 32/92/12 31/119/12 34/109/12
f 15/120/2 1/79/2 40/121/2 41/122/2
f 41/123/1 40/124/1 45/125/1 47/126/1
f 6/127/4 43/21/4 44/24/4 14/128/4
f 4/129/7 14/128/7 44/24/7 48/45/7
f 47/130/2 45/131/2 46/47/2 48/46/2
f 50/51/2 46/47/2 45/131/2 49/132/2
f 40/124/1 42/133/1 49/134/1 45/125/1
f 16/135/3 41/136/3 47/137/3 48/138/3
f 54/139/5 56/117/5 52/118/5 51/140/5
f 53/141/5 54/139/5 51/140/5 57/142/5
f 49/134/1 42/133/1 53/143/1 57/144/1
f 50/51/2 49/132/2 57/145/2 51/146/2
f 63/147/1 64/148/1 53/143/1 42/133/1
f 66/52/2 50/51/2 51/146/2 52/115/2
f 55/149/5 63/150/5 42/151/5 62/152/5
f 156/2/13 164/153/13 62/154/13 1/3/13
f 39/114/8 64/155/8 63/156/8 27/113/8
f 36/111/5 53/141/5 64/157/5 39/112/5
f 42/158/2 40/121/2 65/78/2 62/77/2
f 17/49/2 67/48/2 66/52/2
f 69/159/2 68/7/2 58/11/2 60/160/2
f 61/161/2 69/159/2 60/160/2
f 13/162/2 3/8/2 70/163/2
f 16/164/2 13/162/2 71/165/2
f 15/120/2 71/165/2 70/163/2 61/161/2
f 27/95/5 63/150/5 151/166/5 147/96/5
f 55/149/5 164/167/5 151/166/5 63/150/5
f 25/168/6 148/169/6 149/170/6 26/171/6
f 61/6/14 60/172/14 163/173/14 162/5/14
f 59/174/15 161/175/15 160/176/15 58/177/15
f 60/178/3 58/177/3 160/176/3 163/179/3
f 8/37/6 11/36/6 154/180/6 153/181/6
f 59/182/6 2/183/6 152/184/6 161/185/6
f 72/75/5 29/98/5 150/97/5 159/76/5
f 7/67/5 28/101/5 73/186/5 29/98/5 72/75/5
f 28/85/6 32/84/6 74/187/6 73/188/6
f 157/1/1 89/189/1 75/190/1 156/2/1
f 162/5/1 135/191/1 89/189/1 157/1/1
f 142/192/8 132/193/8 133/194/8 76/195/8 77/196/8
f 76/197/3 79/198/3 80/199/3 117/200/3 77/201/3
f 80/202/8 79/203/8 98/204/8 78/205/8
f 117/206/4 118/207/4 87/208/4 77/209/4
f 122/210/5 78/211/5 98/212/5 92/213/5
f 85/214/3 95/215/3 96/216/3 86/217/3
f 152/33/3 153/35/3 82/218/3 76/197/3
f 85/219/6 86/220/6 84/221/6 82/222/6
f 76/197/3 82/218/3 84/223/3 79/198/3
f 79/203/8 84/224/8 86/225/8 83/226/8 98/204/8
f 87/208/7 118/207/7 122/227/7 90/228/7
f 122/229/8 92/230/8 91/231/8 141/232/8 120/233/8
f 141/232/8 140/234/8 124/235/8 120/233/8
f 92/236/8 104/237/8 105/238/8 91/239/8
f 96/240/6 95/241/6 93/242/6 94/243/6
f 155/61/6 93/242/6 95/241/6 158/62/6
f 154/63/3 158/64/3 95/215/3 85/214/3
f 83/244/5 94/245/5 93/246/5 81/247/5 97/248/5
f 86/225/8 96/249/8 94/250/8 83/226/8
f 83/244/5 97/248/5 104/251/5 92/213/5 98/212/5
f 78/205/8 88/252/8 80/202/8
f 155/74/5 159/76/5 146/253/5 81/247/5 93/246/5
f 136/254/8 75/255/8 139/256/8
f 99/257/2 107/258/2 103/259/2 100/260/2
f 106/261/16 105/262/16 104/263/16 102/264/16
f 111/265/10 106/266/10 166/267/10 107/268/10 112/269/10
f 148/93/11 147/96/11 101/270/11 99/271/11
f 150/97/5 149/100/5 100/272/5 103/273/5
f 97/248/5 81/247/5 102/274/5 104/251/5
f 165/275/6 103/276/6 107/277/6 166/278/6
f 99/257/2 112/279/2 107/258/2
f 105/280/8 108/281/8 91/231/8
f 111/265/11 110/282/11 109/283/11 108/284/11
f 112/269/11 113/285/11 110/282/11 111/265/11
f 101/286/2 113/287/2 112/279/2 99/257/2
f 140/234/8 109/288/8 126/289/8
f 130/290/5 126/291/5 109/283/5 110/282/5
f 91/231/8 108/281/8 109/288/8 140/234/8
f 111/265/12 108/284/12 105/292/12 106/266/12
f 89/293/8 115/294/8 114/295/8 75/255/8
f 115/296/1 121/297/1 119/298/1 114/299/1
f 80/300/4 88/301/4 118/207/4 117/206/4
f 78/302/7 122/227/7 118/207/7 88/301/7
f 121/303/8 122/229/8 120/233/8 119/304/8
f 124/235/8 123/305/8 119/304/8 120/233/8
f 114/299/1 119/298/1 123/306/1 116/307/1
f 90/308/3 122/309/3 121/310/3 115/311/3
f 128/312/5 125/313/5 126/291/5 130/290/5
f 127/314/5 131/315/5 125/313/5 128/312/5
f 123/306/1 131/316/1 127/317/1 116/307/1
f 124/235/8 125/318/8 131/319/8 123/305/8
f 137/320/1 116/307/1 127/317/1 138/321/1
f 140/234/8 126/289/8 125/318/8 124/235/8
f 129/322/5 136/323/5 116/324/5 137/325/5
f 156/2/13 75/190/13 136/326/13 164/153/13
f 113/287/2 101/286/2 137/327/2 138/328/2
f 110/282/5 113/285/5 138/329/5 127/314/5
f 116/330/8 136/254/8 139/256/8 114/295/8
f 91/231/8 140/234/8 141/232/8
f 143/331/8 134/332/8 132/193/8 142/192/8
f 135/333/8 134/332/8 143/331/8
f 87/334/8 144/335/8 77/196/8
f 90/336/8 145/337/8 87/334/8
f 89/293/8 135/333/8 144/335/8 145/337/8
f 101/270/5 147/96/5 151/166/5 137/325/5
f 129/322/5 137/325/5 151/166/5 164/167/5
f 99/338/6 100/339/6 149/170/6 148/169/6
f 135/191/14 162/5/14 163/173/14 134/340/14
f 133/341/15 132/342/15 160/176/15 161/175/15
f 134/343/3 163/179/3 160/176/3 132/342/3
f 82/222/6 153/181/6 154/180/6 85/219/6
f 133/344/6 161/185/6 152/184/6 76/345/6
f 146/253/5 159/76/5 150/97/5 103/273/5
f 81/247/5 146/253/5 103/273/5 165/346/5 102/274/5
f 102/264/6 165/347/6 166/348/6 106/261/6
